<?xml version="1.0" standalone="no"?>
<!DOCTYPE svg PUBLIC "-//W3C//DTD SVG 20010904//EN"
 "http://www.w3.org/TR/2001/REC-SVG-20010904/DTD/svg10.dtd">
<svg version="1.0" xmlns="http://www.w3.org/2000/svg"
 width="300.000000pt" height="300.000000pt" viewBox="0 0 300.000000 300.000000"
 preserveAspectRatio="xMidYMid meet">
<metadata>
Created by potrace 1.11, written by Peter Selinger 2001-2013
</metadata>
<g transform="translate(0.000000,300.000000) scale(0.100000,-0.100000)"
fill="#000000" stroke="none">
<path d="M98 2804 c-39 -21 -86 -79 -93 -116 -3 -18 -4 -564 -3 -1213 3 -1153
3 -1181 23 -1209 10 -16 37 -42 58 -57 l40 -29 1369 0 c1327 0 1370 0 1406 19
45 23 77 56 91 94 15 38 15 2356 1 2407 -11 41 -61 94 -103 109 -20 8 -448 11
-1395 10 -1148 -1 -1371 -4 -1394 -15z m2008 -129 c76 -49 63 -166 -23 -201
-133 -56 -224 131 -100 206 35 22 85 20 123 -5z m309 11 c82 -35 95 -137 26
-201 -30 -26 -112 -26 -142 1 -68 62 -56 164 24 199 41 18 50 18 92 1z m342
-6 c84 -51 79 -160 -9 -206 -37 -19 -67 -18 -105 6 -84 51 -79 160 9 207 31
16 72 13 105 -7z m63 -1330 l0 -990 -1320 0 -1320 0 0 990 0 990 1320 0 1320
0 0 -990z"/>
<path d="M1165 1518 c-21 -46 -59 -128 -85 -183 -107 -226 -110 -235 -86 -235
8 0 21 17 29 38 8 20 36 82 62 137 107 225 145 308 145 316 0 5 -6 9 -13 9 -8
0 -31 -37 -52 -82z"/>
<path d="M805 1491 c-16 -10 -83 -47 -148 -83 l-118 -66 33 -20 c68 -41 255
-141 269 -144 8 -2 14 3 14 10 0 11 -99 72 -212 129 -18 9 -33 20 -33 23 0 4
56 38 125 76 69 38 125 74 125 81 0 17 -19 15 -55 -6z"/>
<path d="M2140 1500 c0 -13 97 -72 237 -145 23 -12 23 -13 -34 -45 -32 -19
-87 -49 -123 -68 -78 -42 -84 -47 -75 -62 7 -11 24 -2 268 133 20 11 37 24 37
28 0 4 -28 23 -62 42 -35 19 -79 43 -98 54 -139 79 -150 83 -150 63z"/>
<path d="M1540 1427 c-28 -18 -32 -18 -49 -3 -21 19 -75 21 -93 3 -11 -11 -16
-12 -25 -1 -7 7 -20 11 -30 9 -10 -2 -21 -4 -25 -4 -5 -1 -8 -7 -8 -15 0 -9 7
-13 18 -11 17 3 19 -6 20 -111 1 -63 -2 -113 -6 -113 -20 3 -32 -2 -32 -16 0
-18 101 -16 108 3 2 7 -5 12 -17 12 -23 0 -24 5 -23 119 0 51 5 68 23 87 27
29 64 31 79 5 5 -11 10 -60 9 -108 -1 -140 -3 -133 30 -133 36 0 51 19 22 27
-12 3 -21 8 -22 12 0 11 -1 155 0 167 3 38 79 71 97 42 5 -7 8 -64 9 -128 1
-110 2 -115 23 -118 12 -2 29 1 39 7 16 9 16 11 -7 19 -23 9 -24 12 -25 115
-1 86 -5 110 -19 126 -25 28 -60 31 -96 8z"/>
<path d="M1875 1440 c-64 -14 -109 -58 -121 -119 -10 -50 14 -119 53 -148 60
-46 197 -32 239 25 18 25 -6 36 -31 12 -28 -26 -97 -44 -137 -36 -104 19 -129
174 -36 222 60 31 151 9 164 -41 10 -42 34 -19 31 31 -2 42 -3 45 -25 39 -13
-3 -30 -1 -38 6 -8 6 -14 9 -14 6 0 -3 -12 -2 -27 2 -16 4 -41 5 -58 1z"/>
</g>
</svg>
