<?xml version="1.0" standalone="no"?>
<!DOCTYPE svg PUBLIC "-//W3C//DTD SVG 20010904//EN"
 "http://www.w3.org/TR/2001/REC-SVG-20010904/DTD/svg10.dtd">
<svg version="1.0" xmlns="http://www.w3.org/2000/svg"
 width="762.000000pt" height="762.000000pt" viewBox="0 0 762.000000 762.000000"
 preserveAspectRatio="xMidYMid meet">
<metadata>
Created by potrace 1.11, written by Peter Selinger 2001-2013
</metadata>
<g transform="translate(0.000000,762.000000) scale(0.100000,-0.100000)"
fill="#000000" stroke="none">
<path d="M3480 6648 c-181 -18 -401 -93 -586 -199 -177 -102 -435 -324 -560
-484 -301 -386 -360 -810 -188 -1353 l27 -84 -49 -43 c-151 -132 -176 -382
-58 -605 43 -83 126 -176 194 -220 44 -29 50 -36 46 -59 -3 -14 -17 -100 -32
-191 -30 -199 -56 -296 -97 -373 -42 -81 -98 -134 -178 -171 l-69 -32 38 -36
c84 -82 185 -104 270 -60 l42 22 0 -50 c0 -30 -8 -68 -21 -96 -23 -48 -91
-123 -140 -151 -16 -9 -29 -21 -29 -25 0 -17 79 -28 125 -18 56 12 86 30 143
84 l42 40 0 -29 c0 -51 -28 -153 -59 -213 -38 -74 -114 -176 -158 -209 -32
-25 -34 -28 -17 -40 45 -33 156 -6 226 56 20 17 38 31 41 31 8 0 -38 -110 -80
-195 -53 -104 -99 -172 -160 -237 l-56 -58 27 -10 c57 -21 126 -8 199 37 l37
23 0 -38 c0 -129 -84 -311 -202 -437 -43 -46 -78 -86 -78 -89 0 -3 18 -15 40
-26 82 -42 197 -16 297 66 24 20 43 31 43 26 0 -26 -42 -166 -60 -202 -30 -59
-96 -128 -150 -155 l-45 -23 30 -13 c17 -7 62 -14 101 -17 89 -5 162 15 234
63 29 20 55 33 58 30 11 -10 -18 -145 -39 -188 -12 -23 -38 -59 -58 -81 l-36
-38 91 4 c108 6 187 37 242 95 l35 37 -8 -69 c-9 -89 -36 -160 -75 -200 l-31
-32 31 -26 c80 -68 206 -49 284 44 l26 31 0 -39 c0 -65 -20 -115 -62 -157 -44
-45 -43 -47 42 -72 102 -31 225 -8 336 62 l51 32 18 -57 c43 -139 137 -231
236 -231 40 0 41 1 36 28 -4 15 -14 61 -22 102 -11 47 -14 93 -10 123 7 54 33
127 45 127 4 0 24 -18 43 -39 40 -44 53 -91 43 -153 -7 -40 -6 -40 21 -33 78
19 162 102 178 176 4 16 8 29 9 29 2 0 21 -17 42 -37 62 -58 153 -96 233 -96
36 0 78 5 94 11 l27 12 -34 47 c-18 27 -39 65 -46 87 -11 35 -10 120 3 132 3
3 28 -6 56 -20 69 -35 161 -56 251 -56 67 0 150 14 150 25 0 3 -11 38 -25 79
-27 81 -33 180 -14 234 9 27 14 30 30 21 32 -16 109 -121 115 -157 8 -42 18
-40 48 6 36 53 56 117 56 174 l0 49 32 -17 c74 -39 216 -26 321 28 l39 19 -69
45 c-83 55 -125 94 -164 155 -27 43 -53 134 -43 151 6 10 74 -24 96 -48 9 -11
22 -33 29 -49 l12 -30 8 40 c5 22 11 94 15 160 8 139 -9 251 -51 342 -14 31
-23 58 -21 60 9 9 88 -72 107 -109 11 -21 22 -38 26 -38 10 0 -7 267 -22 339
-20 97 -52 177 -96 245 -22 32 -39 60 -39 62 0 13 47 1 66 -17 l22 -21 7 87
c14 160 -14 323 -71 421 -13 22 -24 44 -24 47 0 4 18 7 40 7 22 0 57 7 78 16
36 15 92 60 92 75 0 4 -19 18 -43 32 -23 14 -64 48 -91 76 -94 102 -126 221
-126 473 l0 163 48 17 c213 76 382 325 382 564 0 201 -122 369 -283 390 -26 4
-49 10 -52 13 -2 4 12 61 31 126 61 212 84 345 91 522 7 180 -3 267 -44 398
-98 313 -306 520 -648 646 -50 18 -119 54 -155 79 -244 174 -521 281 -799 310
-117 11 -179 11 -301 -2z m967 -898 c22 -81 26 -117 27 -245 1 -160 -7 -200
-60 -307 -13 -26 -24 -50 -24 -54 0 -13 117 5 173 26 54 20 127 85 127 112 0
33 22 -18 46 -107 19 -68 28 -126 28 -182 1 -46 5 -83 9 -83 36 0 112 71 123
116 13 51 21 19 32 -133 6 -87 23 -300 38 -473 29 -353 28 -476 -5 -582 -25
-78 -71 -150 -124 -192 -36 -29 -44 -31 -120 -31 -72 0 -90 4 -147 32 -36 18
-130 78 -211 135 -172 123 -251 161 -329 162 -30 1 -67 -3 -82 -8 l-28 -8 0
53 c0 94 -60 192 -125 204 -67 13 -141 -80 -152 -191 l-6 -53 -57 6 c-105 11
-202 -38 -371 -187 -172 -152 -253 -200 -332 -200 -78 1 -180 80 -223 174 -32
70 -51 150 -70 287 -15 114 -15 118 6 195 29 106 109 271 170 354 119 160 267
266 501 356 250 96 558 245 706 340 126 81 266 225 320 329 49 95 79 189 89
277 l7 63 19 -45 c11 -25 31 -88 45 -140z m-574 -2294 c18 -14 44 -29 57 -35
19 -7 3 -10 -70 -10 -52 0 -112 3 -134 7 -36 7 -37 8 -20 23 61 53 111 57 167
15z m-237 -96 c107 -28 284 -36 399 -19 50 7 108 13 131 13 47 1 120 -29 129
-52 16 -43 -90 -114 -230 -154 -70 -20 -102 -23 -260 -23 -240 0 -393 32 -462
97 -29 27 -31 80 -4 107 19 19 33 23 136 40 74 13 76 13 161 -9z"/>
<path d="M4162 4934 c-65 -32 -110 -93 -126 -170 l-7 -31 193 -5 c126 -4 241
-13 332 -27 76 -12 141 -20 144 -16 9 9 -33 86 -72 132 -79 91 -200 143 -335
143 -63 0 -87 -5 -129 -26z"/>
<path d="M3240 4892 c-120 -32 -217 -106 -273 -211 -32 -58 -50 -111 -37 -111
4 0 66 16 136 35 166 46 378 85 459 85 35 0 67 4 70 10 8 14 -26 89 -60 128
-62 73 -173 97 -295 64z"/>
<path d="M3207 4489 c-36 -27 -50 -82 -45 -172 4 -90 27 -130 75 -135 91 -9
123 219 43 300 -34 33 -40 34 -73 7z"/>
<path d="M4379 4479 c-34 -36 -43 -75 -37 -167 4 -83 33 -132 78 -132 89 0
119 223 40 302 -36 35 -45 35 -81 -3z"/>
<path d="M2980 3950 c-58 -118 -63 -143 -34 -154 28 -11 42 7 99 125 46 97 55
122 45 134 -30 36 -49 18 -110 -105z"/>
<path d="M3204 3955 c-30 -63 -54 -124 -54 -134 0 -20 32 -37 50 -26 5 3 35
58 65 122 59 123 62 153 19 153 -22 0 -32 -13 -80 -115z"/>
<path d="M4377 4063 c-16 -15 -3 -54 51 -158 42 -81 62 -110 76 -110 43 0 39
27 -20 153 -47 101 -61 122 -79 122 -12 0 -25 -3 -28 -7z"/>
<path d="M4536 4054 c-8 -20 100 -250 120 -258 18 -7 41 2 48 19 3 8 -22 68
-54 135 -52 104 -63 120 -84 120 -13 0 -27 -7 -30 -16z"/>
</g>
</svg>
